# xmcd
#
# Track frame offsets:
#	150
#	11095
#	24352
#	39653
#	51099
#	63756
#	77870
#	91189
#	103700
#	115606
#	134238
#	148511
#	161448
#	173725
#
# Disc length: 2615 seconds
#
# Revision: 0
# Processed by: cddbd v1.5.2PL0 Copyright (c) Steve Scherf et al.
# Submitted via: EasyCDDAExtractor 8.1.4.1
#
DISCID=b10a350e
DTITLE=Bill Hearne's Roadhouse Revue - Heartaches and Honky-Tonks
DYEAR=2007
DGENRE=Country
TTITLE0=Odds and Ends (Bits and Pieces)
TTITLE1=Close Up The Honky-Tonks
TTITLE2=Sing Me Back Home
TTITLE3=The End Of The Line
TTITLE4=Face To The Wall
TTITLE5=Somewhere Between
TTITLE6=You Don't Care What Happens To Me
TTITLE7=Who Will Buy The Wine
TTITLE8=Old Faithful
TTITLE9=The Waltz Of The Angels
TTITLE10=Wishful Thinking
TTITLE11=Road Too Long
TTITLE12=Wine Me Up
TTITLE13=Come Back To Old Santa Fe
EXTD=
EXTT0=
EXTT1=
EXTT2=
EXTT3=
EXTT4=
EXTT5=
EXTT6=
EXTT7=
EXTT8=
EXTT9=
EXTT10=
EXTT11=
EXTT12=
EXTT13=
PLAYORDER=
